HIERARCHY
ROOT Hips
{
	OFFSET 0.00000 0.00000 0.00000
	CHANNELS 6 Xposition Yposition Zposition Zrotation Yrotation Xrotation 
	JOINT LHipJoint
	{
		OFFSET 0 0 0
		CHANNELS 3 Zrotation Yrotation Xrotation
		JOINT LeftHip
		{
			OFFSET 2.36090 -1.39315 1.24752
			CHANNELS 3 Zrotation Yrotation Xrotation
			JOINT LeftKnee
			{
				OFFSET 2.06810 -5.68207 0.00000
				CHANNELS 3 Zrotation Yrotation Xrotation
				JOINT LeftAnkle
				{
					OFFSET 2.46631 -6.77613 0.00000
					CHANNELS 3 Zrotation Yrotation Xrotation
					JOINT LeftToe
					{
						OFFSET 0.26031 -0.71520 1.99545
						CHANNELS 3 Zrotation Yrotation Xrotation
						End Site
						{
							OFFSET 0.00000 -0.00000 1.05957
						}
					}
				}
			}
		}
	}
	JOINT RHipJoint
	{
		OFFSET 0 0 0
		CHANNELS 3 Zrotation Yrotation Xrotation
		JOINT RightHip
		{
			OFFSET -2.25243 -1.39315 1.24752
			CHANNELS 3 Zrotation Yrotation Xrotation
			JOINT RightKnee
			{
				OFFSET -2.17343 -5.97145 0.00000
				CHANNELS 3 Zrotation Yrotation Xrotation
				JOINT RightAnkle
				{
					OFFSET -2.52372 -6.93386 0.00000
					CHANNELS 3 Zrotation Yrotation Xrotation
					JOINT RightToe
					{
						OFFSET -0.22538 -0.61923 2.11447
						CHANNELS 3 Zrotation Yrotation Xrotation
						End Site
						{
							OFFSET -0.00000 -0.00000 1.10506
						}
					}
				}
			}
		}
	}
	JOINT lowerback
	{
		OFFSET 0 0 0
		CHANNELS 3 Zrotation Yrotation Xrotation
		JOINT Chest
		{
			OFFSET 0.01594 2.13103 0.08007
			CHANNELS 3 Zrotation Yrotation Xrotation
			JOINT Chest2
			{
				OFFSET 0.01393 2.09723 0.18338
				CHANNELS 3 Zrotation Yrotation Xrotation
				JOINT lowerneck
				{
					OFFSET 0 0 0
					CHANNELS 3 Zrotation Yrotation Xrotation
					JOINT Neck
					{
						OFFSET 0.05351 1.38915 0.32494
						CHANNELS 3 Zrotation Yrotation Xrotation
						JOINT Head
						{
							OFFSET 0.00711 1.45992 -0.21666
							CHANNELS 3 Zrotation Yrotation Xrotation
							End Site
							{
								OFFSET -0.00433 1.47702 -0.11056
							}
						}
					}
				}
				JOINT LeftCollar
				{
					OFFSET 0 0 0
					CHANNELS 3 Zrotation Yrotation Xrotation
					JOINT LeftShoulder
					{
						OFFSET 2.87198 0.92249 0.11132
CHANNELS 3 Zrotation Xrotation Yrotation
						JOINT LeftElbow
						{
OFFSET 0 -5.527310 0.000000
CHANNELS 3 Zrotation Xrotation Yrotation
							JOINT LeftWrist
							{
OFFSET 0 -3.110590 0.000000
CHANNELS 3 Zrotation Xrotation Yrotation
								JOINT lhand
								{
									OFFSET 0 0 0
CHANNELS 3 Zrotation Xrotation Yrotation
									JOINT LFingers
									{
OFFSET 0 -0.419630 0.000000
CHANNELS 3 Zrotation Xrotation Yrotation
										End Site
										{
OFFSET 0 -0.338310 0.000000
										}
									}
								}
								JOINT LThumb
								{
OFFSET 0 0.000000 0.000000
CHANNELS 3 Zrotation Xrotation Yrotation
									End Site
									{
OFFSET 0 -0.343480 0.343480
									}
								}
							}
						}
					}
				}
				JOINT RightCollar
				{
					OFFSET 0 0 0
					CHANNELS 3 Zrotation Yrotation Xrotation
					JOINT RightShoulder
					{
						OFFSET -2.94710 0.68072 0.32187
CHANNELS 3 Zrotation Xrotation Yrotation
						JOINT RightElbow
						{
OFFSET 0 -5.253960 -0.000000
CHANNELS 3 Zrotation Xrotation Yrotation
							JOINT RightWrist
							{
OFFSET 0 -3.105670 0.000000
CHANNELS 3 Zrotation Xrotation Yrotation
								JOINT rhand
								{
									OFFSET 0 0 0
CHANNELS 3 Zrotation Xrotation Yrotation
									JOINT RFingers
									{
OFFSET 0 -0.498680 0.000000
CHANNELS 3 Zrotation Xrotation Yrotation
										End Site
										{
OFFSET 0 -0.402040 0.000000
										}
									}
								}
								JOINT RThumb
								{
OFFSET 0 0.000000 0.000000
CHANNELS 3 Zrotation Xrotation Yrotation
									End Site
									{
OFFSET 0 -0.408180 0.408180
									}
								}
							}
						}
					}
				}
			}
		}
	}
}
MOTION
Frames: 6
Frame Time: 0.008333333333333333
7.353700 15.621200 26.780100 -177.393000 0.287100 -160.250000 0.000000 0.000000 0.000000 -12.761900 -17.729600 -29.132400 2.394600 9.643800 27.830700 0.392500 7.178500 -16.594400 0.845100 -5.863400 -16.388700 0.000000 0.000000 0.000000 23.840300 20.483800 -21.895100 -2.298700 -9.462300 27.252500 0.326700 -16.239500 -19.512700 -0.419400 4.156800 -11.518300 10.580000 4.010200 -15.140500 -0.012000 4.487500 -4.865800 -5.107600 2.553100 3.986400 22.839700 21.254300 4.648200 -13.540500 30.486000 12.221800 -4.400100 15.237200 8.603600 0.000000 -0.000000 0.000000 12.808200 1.550900 -49.539800 19.803200 -30.404500 5.431400 21.985300 -45.775800 1.722300 0.000000 0.000000 0.000000 -7.125000 0.000000 0.000000 -3.552800 28.116300 -1.461800 0.000000 -0.000000 0.000000 -4.602000 14.479800 17.089300 -15.520700 -24.866500 -3.441900 -14.014400 0.026500 18.480700 0.000000 0.000000 0.000000 7.125000 0.000000 -0.000000 13.701800 48.497800 -1.203100
7.371369 15.616783 26.781362 -177.376773 0.101571 -160.255409 0.000000 0.000000 0.000000 -12.643803 -17.723289 -29.355071 2.437602 9.723583 28.086096 0.406293 6.987021 -16.591605 0.860426 -5.915056 -16.538079 0.000000 0.000000 0.000000 23.952717 20.481186 -21.866162 -2.298610 -9.462120 27.251779 0.338960 -16.362375 -19.573642 -0.413901 4.129665 -11.441853 10.680427 3.974771 -15.170971 0.076347 4.413216 -4.806932 -5.080555 2.521097 4.052480 23.176682 21.040103 5.251576 -14.206079 30.379082 11.814681 -4.725903 15.207000 8.519219 0.000000 0.000000 0.000000 12.666123 1.478509 -48.983393 19.805905 -30.407836 5.432752 22.782949 -45.676815 1.756287 0.000000 0.000000 0.000000 -7.125000 0.000000 0.000000 -2.935271 28.070774 -1.210191 0.000000 0.000000 0.000000 -4.717482 14.471596 16.868612 -15.286670 -24.543852 -3.344177 -14.060467 0.305245 18.485117 0.000000 0.000000 0.000000 7.125000 0.000000 0.000000 13.660331 48.508888 -1.203100
7.385586 15.613409 26.781500 -177.368576 -0.023492 -160.247167 0.000000 0.000000 0.000000 -12.535102 -17.751026 -29.621185 2.499795 9.837333 28.451664 0.424503 6.841072 -16.686215 0.862903 -5.923511 -16.562671 0.000000 0.000000 0.000000 24.035022 20.447415 -21.871672 -2.299885 -9.464589 27.259730 0.330343 -16.385195 -19.716409 -0.393466 4.027529 -11.154135 10.768729 3.891965 -15.117126 0.187660 4.307535 -4.844665 -5.037771 2.468938 3.960368 23.014837 21.019511 5.142445 -14.017181 30.318417 12.153474 -4.648838 15.168207 8.583555 0.000000 0.000000 0.000000 12.504614 1.644691 -48.380572 19.838160 -30.446825 5.449121 23.127383 -45.836719 2.458373 0.000000 0.000000 0.000000 -7.125000 0.000000 0.000000 -2.659501 27.303909 -1.143433 0.000000 0.000000 0.000000 -4.912141 14.628330 16.896454 -15.111420 -24.301023 -3.271749 -14.178162 -0.188261 16.098266 0.000000 0.000000 0.000000 7.125000 0.000000 0.000000 12.782291 46.151755 -0.382108
7.402408 15.607909 26.783614 -177.350092 -0.240333 -160.210479 0.000000 0.000000 0.000000 -12.397963 -17.728411 -30.014859 2.569133 9.962224 28.854628 0.439379 6.585521 -16.647010 0.867397 -5.938572 -16.606336 0.000000 0.000000 0.000000 24.136107 20.397775 -21.923045 -2.302314 -9.469286 27.274733 0.338679 -16.483454 -19.783616 -0.401070 4.065831 -11.261938 10.896194 3.862526 -15.081049 0.287348 4.264156 -4.868252 -5.014333 2.449673 3.906411 22.882616 20.915792 4.805016 -14.093479 30.152888 12.511268 -4.647196 15.055444 8.723409 0.000000 0.000000 0.000000 12.276258 1.681271 -47.809044 19.820356 -30.425302 5.440137 23.630535 -45.520922 2.583625 0.000000 0.000000 0.000000 -7.125000 0.000000 0.000000 -2.271505 27.158284 -0.985078 0.000000 0.000000 0.000000 -5.097208 14.708425 16.717222 -14.901673 -24.008736 -3.186008 -14.186074 0.282031 17.252734 0.000000 0.000000 0.000000 7.125000 0.000000 0.000000 13.137101 47.302343 -0.769246
7.418623 15.601597 26.785712 -177.326638 -0.454307 -160.174184 0.000000 0.000000 0.000000 -12.249763 -17.724666 -30.439016 2.649507 10.104398 29.315721 0.454626 6.341031 -16.625406 0.869564 -5.945630 -16.626769 0.000000 0.000000 0.000000 24.240143 20.344827 -21.983091 -2.306533 -9.477363 27.300380 0.343442 -16.567999 -19.871067 -0.404118 4.081192 -11.305236 10.873827 4.427101 -15.056710 0.341001 4.073712 -4.901295 -5.002055 1.945369 3.891455 22.775667 20.804915 4.511090 -14.171368 29.984448 12.851093 -4.654888 14.944230 8.854372 0.000000 0.000000 0.000000 12.064784 1.731241 -47.227376 19.806388 -30.408361 5.433003 24.110409 -45.232487 2.720166 0.000000 0.000000 0.000000 -7.125000 0.000000 0.000000 -1.903613 26.998584 -0.831798 0.000000 0.000000 0.000000 -5.276817 14.782644 16.564767 -14.689899 -23.712122 -3.100344 -14.186345 0.664341 18.093318 0.000000 0.000000 0.000000 7.125000 0.000000 0.000000 13.405919 48.138621 -1.055794
7.433672 15.594588 26.787769 -177.295192 -0.656607 -160.137669 0.000000 0.000000 0.000000 -12.084623 -17.747403 -30.904102 2.746028 10.271455 29.860874 0.471090 6.112766 -16.637383 0.865791 -5.933003 -16.590180 0.000000 0.000000 0.000000 24.348694 20.282825 -22.054173 -2.312456 -9.488656 27.336287 0.341722 -16.624358 -19.988077 -0.400721 4.064153 -11.257285 10.919631 4.780964 -15.015891 0.408231 3.916731 -4.945792 -5.001759 1.594124 3.840216 22.644754 20.703799 4.202675 -14.159745 29.815501 13.244061 -4.632195 14.833511 8.987248 0.000000 0.000000 0.000000 11.868756 1.821582 -46.628310 19.799022 -30.399405 5.429261 24.504897 -45.012425 2.958224 0.000000 0.000000 0.000000 -7.125000 0.000000 0.000000 -1.602016 26.728303 -0.710022 0.000000 0.000000 0.000000 -5.461878 14.870554 16.478566 -14.485869 -23.424828 -3.018731 -14.184795 0.845317 18.269188 0.000000 0.000000 0.000000 7.125000 0.000000 0.000000 13.468233 48.312759 -1.119613
